<svg width="32" height="32" viewBox="0 0 32 32" fill="none" xmlns="http://www.w3.org/2000/svg">
<path d="M24.4192 14.0438C23.9644 14.5014 23.6161 15.0536 23.3991 15.6611C23.1822 16.2687 23.1019 16.9166 23.1639 17.5587L23.1423 17.5371C23.2062 18.293 23.1042 19.0536 22.8436 19.766C22.5831 20.4784 22.1703 21.1253 21.634 21.6617C21.0976 22.198 20.4507 22.6109 19.7382 22.8713C19.0259 23.1318 18.2652 23.2338 17.5094 23.17L17.531 23.1916C16.6269 23.1075 15.7189 23.3042 14.9306 23.755C14.1424 24.2059 13.5124 24.8888 13.1266 25.7108C12.7408 26.5328 12.6178 27.4537 12.7745 28.3482C12.9313 29.2426 13.3601 30.0669 14.0025 30.7087C14.6448 31.3505 15.4695 31.7785 16.364 31.9344C17.2586 32.0904 18.1794 31.9665 19.0011 31.58C19.8227 31.1934 20.505 30.5629 20.9552 29.7742C21.4053 28.9856 21.6013 28.0774 21.5163 27.1733L21.5391 27.1949C21.4753 26.4391 21.5771 25.6784 21.8377 24.966C22.0982 24.2536 22.5111 23.6067 23.0474 23.0703C23.5838 22.534 24.2308 22.1211 24.9431 21.8607C25.6555 21.6001 26.4161 21.4981 27.172 21.562L27.1492 21.5404C27.8877 21.6067 28.6311 21.4857 29.3105 21.1883C29.9897 20.8909 30.583 20.4269 31.0351 19.8392C31.4873 19.2516 31.784 18.5592 31.8972 17.8264C32.0106 17.0936 31.9372 16.344 31.6837 15.6471C31.4303 14.9502 31.005 14.3286 30.4474 13.8398C29.8897 13.351 29.2177 13.011 28.4936 12.8511C27.7695 12.6913 27.0167 12.7167 26.3051 12.9252C25.5935 13.1337 24.9461 13.5185 24.4228 14.0438H24.4192Z" fill="#1E1E1E"/>
<path d="M15.5663 20.362L15.5435 20.3404C16.1859 20.405 16.8346 20.3262 17.4429 20.1095C18.0511 19.8927 18.6036 19.5437 19.0603 19.0873C19.5169 18.6309 19.8666 18.0787 20.0837 17.4706C20.3009 16.8626 20.3802 16.214 20.316 15.5715L20.3388 15.5931C20.275 14.8372 20.377 14.0766 20.6374 13.3641C20.8979 12.6518 21.3108 12.0049 21.8471 11.4685C22.3835 10.9322 23.0305 10.5192 23.7428 10.2588C24.4552 9.99826 25.2158 9.89634 25.9717 9.96014L25.9489 9.93854C26.8531 10.0235 27.7614 9.82737 28.5501 9.37705C29.3389 8.92673 29.9694 8.24407 30.3558 7.42221C30.7422 6.60037 30.8657 5.67931 30.7094 4.78468C30.5532 3.89005 30.1248 3.06542 29.4825 2.42324C28.8404 1.78107 28.0157 1.35261 27.1211 1.19634C26.2265 1.04007 25.3055 1.16356 24.4836 1.54999C23.6617 1.93641 22.9791 2.56696 22.5287 3.35563C22.0784 4.14429 21.8823 5.05267 21.9672 5.95686L21.9456 5.93406C22.0096 6.68995 21.9078 7.45069 21.6474 8.16317C21.387 8.87565 20.9741 9.52269 20.4378 10.0591C19.9014 10.5954 19.2543 11.0084 18.5419 11.2688C17.8293 11.5292 17.0686 11.6309 16.3127 11.567L16.3343 11.5898C15.6919 11.5251 15.0431 11.6039 14.4349 11.8207C13.8268 12.0373 13.2743 12.3865 12.8175 12.8428C12.3608 13.2992 12.0112 13.8515 11.794 14.4595C11.5769 15.0676 11.4976 15.7162 11.5618 16.3587L11.5402 16.3371C11.6038 17.0928 11.5017 17.8534 11.2412 18.5658C10.9805 19.278 10.5677 19.9249 10.0314 20.4612C9.4951 20.9975 8.84824 21.4103 8.13595 21.6709C7.42366 21.9315 6.6631 22.0336 5.90731 21.97L5.92891 21.9916C5.02472 21.9066 4.11634 22.1027 3.32767 22.5531C2.53901 23.0034 1.90846 23.686 1.52204 24.5079C1.13561 25.3298 1.0121 26.2508 1.16838 27.1454C1.32466 28.0401 1.75312 28.8647 2.39529 29.5069C3.03747 30.1491 3.8621 30.5775 4.75673 30.7338C5.65136 30.89 6.57241 30.7665 7.39427 30.3801C8.21612 29.9937 8.89878 29.3632 9.3491 28.5746C9.79947 27.7858 9.99555 26.8775 9.91059 25.9733L9.93339 25.9949C9.86955 25.239 9.97155 24.4784 10.2321 23.7659C10.4925 23.0536 10.9054 22.4067 11.4417 21.8703C11.9781 21.334 12.625 20.921 13.3374 20.6606C14.0498 20.4001 14.8104 20.2981 15.5663 20.362Z" fill="#1E1E1E"/>
<path d="M7.52403 17.9535C7.97887 17.4961 8.32709 16.9438 8.54386 16.3363C8.76063 15.7287 8.8406 15.0807 8.77806 14.4387L8.80085 14.4603C8.737 13.7042 8.83896 12.9433 9.09962 12.2307C9.36027 11.5182 9.77336 10.8711 10.31 10.3347C10.8467 9.79831 11.4938 9.38551 12.2065 9.12516C12.9192 8.86481 13.6802 8.76317 14.4362 8.82734L14.4134 8.80574C15.3172 8.89043 16.2253 8.69424 17.0136 8.24394C17.8019 7.79365 18.432 7.11116 18.8183 6.28957C19.2045 5.46796 19.3278 4.54724 19.1716 3.65295C19.0153 2.75865 18.5869 1.93433 17.945 1.29239C17.3032 0.65045 16.4787 0.222137 15.5845 0.0658699C14.6902 -0.0904092 13.7694 0.0329772 12.9479 0.419169C12.1262 0.805361 11.4438 1.43558 10.9935 2.22387C10.5432 3.01217 10.347 3.92018 10.4317 4.82406L10.4101 4.80246C10.4739 5.5583 10.3719 6.31896 10.1114 7.03134C9.85088 7.74372 9.4381 8.39067 8.90173 8.92703C8.36538 9.46339 7.71842 9.87624 7.00604 10.1367C6.29366 10.3972 5.53301 10.4992 4.77718 10.4354L4.79878 10.457C4.06025 10.3907 3.31694 10.5121 2.63775 10.8095C1.95856 11.107 1.36545 11.5712 0.913385 12.159C0.461324 12.7466 0.164942 13.439 0.0516837 14.1718C-0.0615626 14.9046 0.0119869 15.6542 0.265516 16.3509C0.519045 17.0477 0.94437 17.6692 1.50206 18.1579C2.05974 18.6467 2.73176 18.9866 3.45583 19.1465C4.17989 19.3062 4.93258 19.2806 5.64416 19.0722C6.35572 18.8636 7.00314 18.4789 7.52642 17.9535H7.52403Z" fill="#1E1E1E"/>
</svg>
